<svg width="679" height="828" viewBox="0 0 679 828" fill="none" xmlns="http://www.w3.org/2000/svg">
<circle cx="339.5" cy="413.5" r="339.5" fill="#D3FFFB"/>
<path d="M627.384 422.273L534.157 406.22L518.104 499.448L611.332 515.501L627.384 422.273Z" fill="#6047B5"/>
<path d="M595.854 338.932L553.699 583.729C547.491 619.767 527.626 651.245 497.745 672.335C489.294 678.295 480.338 683.237 471.01 687.102C443.696 698.433 423.88 722.677 418.864 751.812L410.529 800.217C407.425 818.228 390.316 830.305 372.313 827.209L183.553 794.705C165.542 791.601 153.466 774.492 156.561 756.489L164.897 708.085C169.913 678.949 159.342 649.474 137.4 629.659C129.909 622.896 123.114 615.24 117.146 606.797C96.0474 576.925 87.8448 540.621 94.0526 504.574L136.208 259.778C142.416 223.739 162.289 192.27 192.161 171.179C200.612 165.212 209.577 160.27 218.905 156.405C246.219 145.073 266.035 120.829 271.051 91.6938L279.386 43.2891C282.49 25.2781 299.599 13.2018 317.601 16.2975L506.362 48.8018C524.373 51.9058 536.449 69.0146 533.353 87.0173L525.018 135.422C520.002 164.558 530.572 194.032 552.507 213.848C560.006 220.61 566.801 228.267 572.769 236.718C593.868 266.59 602.062 302.894 595.854 338.932Z" fill="#FF00EA"/>
<path d="M476.893 223.454L287.102 190.774C236.213 182.011 187.856 216.162 179.093 267.05L136.94 511.853C128.178 562.742 162.328 611.099 213.217 619.862L403.008 652.542C453.897 661.304 502.254 627.154 511.016 576.265L553.169 331.463C561.932 280.574 527.782 232.217 476.893 223.454Z" fill="#6047B5"/>
<path d="M501.66 345.049C501.428 345.049 501.197 345.032 500.965 344.991L391.632 326.16C389.414 325.779 387.932 323.677 388.313 321.459C388.694 319.241 390.796 317.759 393.015 318.14L502.347 336.97C504.565 337.351 506.047 339.453 505.666 341.672C505.327 343.65 503.605 345.049 501.66 345.049Z" fill="#FFEEEE"/>
<path d="M494.914 384.225C494.683 384.225 494.451 384.208 494.219 384.166L384.886 365.336C382.668 364.955 381.186 362.853 381.567 360.635C381.948 358.417 384.05 356.935 386.268 357.315L495.601 376.146C497.82 376.527 499.301 378.629 498.92 380.848C498.581 382.826 496.859 384.225 494.914 384.225Z" fill="#FFEEEE"/>
<path d="M472.26 515.773C472.028 515.773 471.796 515.757 471.565 515.715L362.232 496.885C360.014 496.504 358.532 494.402 358.913 492.183C359.293 489.965 361.396 488.484 363.614 488.864L472.947 507.695C475.165 508.076 476.646 510.178 476.266 512.396C475.926 514.374 474.205 515.773 472.26 515.773Z" fill="#FFEEEE"/>
<path d="M465.514 554.949C465.282 554.949 465.051 554.932 464.819 554.891L355.486 536.061C353.267 535.68 351.786 533.577 352.167 531.359C352.548 529.141 354.65 527.659 356.868 528.04L466.201 546.871C468.419 547.251 469.901 549.353 469.52 551.572C469.181 553.55 467.459 554.949 465.514 554.949Z" fill="#FFEEEE"/>
<path d="M464.496 41.5927C463.751 45.9134 461.326 49.5223 458.007 51.8648C454.688 54.2155 450.474 55.283 446.154 54.5464L372.404 41.8409C363.763 40.351 357.969 32.1401 359.451 23.5071L464.488 41.5927H464.496Z" fill="#6047B5"/>
<path d="M330.439 820C331.184 815.679 330.1 811.466 327.757 808.147C325.415 804.828 321.807 802.402 317.486 801.658L243.736 788.952C235.095 787.462 226.884 793.264 225.403 801.906L330.439 819.991V820Z" fill="#6047B5"/>
<path d="M240.335 112.95C239.267 112.95 238.406 112.089 238.389 111.03C238.108 92.8365 233.854 79.8579 225.403 71.4069C216.952 62.9559 203.973 58.7015 185.78 58.4201C184.712 58.4036 183.86 57.5427 183.86 56.4749C183.86 55.4072 184.72 54.5463 185.78 54.5297C203.973 54.2483 216.952 49.9939 225.403 41.5429C233.854 33.092 238.108 20.1135 238.389 1.92035C238.406 0.852602 239.267 0 240.335 0C241.402 0 242.263 0.860879 242.279 1.92035C242.561 20.1135 246.815 33.092 255.266 41.5429C263.717 49.9939 276.696 54.2483 294.889 54.5297C295.957 54.5463 296.81 55.4072 296.81 56.4749C296.81 57.5427 295.948 58.4036 294.889 58.4201C276.696 58.7015 263.717 62.9559 255.266 71.4069C246.815 79.8579 242.561 92.8365 242.279 111.03C242.263 112.097 241.402 112.95 240.335 112.95Z" fill="#40EFED"/>
<path d="M566.959 773.598C565.717 773.598 564.715 772.597 564.691 771.355C564.368 750.174 559.418 735.068 549.577 725.235C539.735 715.393 524.638 710.444 503.456 710.121C502.215 710.104 501.213 709.094 501.213 707.853C501.213 706.611 502.215 705.61 503.456 705.585C524.638 705.262 539.744 700.312 549.577 690.471C559.418 680.629 564.368 665.532 564.691 644.351C564.707 643.109 565.717 642.107 566.959 642.107C568.2 642.107 569.202 643.109 569.227 644.351C569.549 665.532 574.499 680.638 584.341 690.471C594.182 700.312 609.28 705.262 630.461 705.585C631.702 705.602 632.704 706.611 632.704 707.853C632.704 709.094 631.702 710.096 630.461 710.121C609.28 710.444 594.174 715.393 584.341 725.235C574.499 735.076 569.549 750.174 569.227 771.355C569.21 772.597 568.2 773.598 566.959 773.598Z" fill="#7FE555"/>
<path d="M65.1321 583.596C64.3209 583.596 63.6589 582.942 63.6423 582.131C63.4271 568.234 60.1825 558.326 53.7263 551.87C47.2702 545.414 37.3624 542.169 23.4651 541.954C22.6539 541.946 22 541.284 22 540.464C22 539.653 22.6539 538.991 23.4651 538.974C37.3624 538.759 47.2702 535.515 53.7263 529.058C60.1825 522.602 63.4271 512.694 63.6423 498.797C63.6506 497.986 64.3126 497.332 65.1321 497.332C65.9432 497.332 66.6056 497.986 66.6222 498.797C66.8374 512.694 70.082 522.602 76.5382 529.058C82.9944 535.515 92.9021 538.759 106.799 538.974C107.611 538.983 108.265 539.645 108.265 540.464C108.265 541.275 107.611 541.937 106.799 541.954C92.9021 542.169 82.9944 545.414 76.5382 551.87C70.082 558.326 66.8374 568.234 66.6222 582.131C66.6139 582.942 65.9515 583.596 65.1321 583.596Z" fill="#FFB1F9"/>
<path d="M242.518 496.752C242.518 496.752 238.131 511.608 232.873 527.066C227.614 542.524 224.93 553.301 224.93 553.301L259.261 559.955C259.261 559.955 264.699 532.511 267.654 501.622C267.654 501.622 258.224 491.844 242.518 496.752Z" fill="#FFA38A"/>
<path d="M307.952 470.271L206.076 450.525C203.579 450.041 201.947 447.624 202.431 445.127C202.915 442.631 205.332 440.999 207.829 441.483L309.704 461.228C312.201 461.712 313.833 464.129 313.349 466.626C312.865 469.123 310.448 470.755 307.952 470.271Z" fill="#43224D"/>
<path d="M301.297 464.29C298.774 477.312 294.193 487.376 291.067 486.77L279.746 484.576C276.62 483.97 276.131 472.923 278.655 459.901C281.179 446.88 285.759 436.815 288.885 437.421L300.207 439.616C303.333 440.222 303.821 451.268 301.297 464.29Z" fill="#FFB1F9"/>
<path d="M281.304 484.467C280.774 484.81 280.231 484.966 279.69 484.862C279.532 484.831 279.429 484.679 279.46 484.521C279.491 484.362 279.643 484.259 279.801 484.29C281.148 484.551 282.978 482.377 284.821 478.325C286.744 474.1 288.474 468.316 289.69 462.04C290.906 455.764 291.463 449.754 291.258 445.116C291.062 440.669 290.177 437.968 288.83 437.707C288.672 437.677 288.569 437.524 288.6 437.366C288.63 437.208 288.782 437.105 288.941 437.136C291.065 437.547 291.69 441.689 291.841 445.091C292.048 449.773 291.488 455.832 290.263 462.151C289.038 468.47 287.294 474.3 285.352 478.566C284.302 480.875 282.853 483.466 281.305 484.467L281.304 484.467Z" fill="#43224D"/>
<path d="M286.958 485.563C286.411 485.917 285.872 486.06 285.351 485.959C285.192 485.928 285.089 485.776 285.12 485.618C285.151 485.459 285.303 485.357 285.461 485.387C285.818 485.457 286.215 485.348 286.638 485.075C289.287 483.364 293.022 475.152 295.35 463.138C296.567 456.862 297.123 450.852 296.919 446.213C296.722 441.766 295.837 439.065 294.49 438.804C294.332 438.774 294.229 438.622 294.26 438.463C294.291 438.305 294.443 438.202 294.601 438.233C296.725 438.645 297.35 442.786 297.501 446.188C297.708 450.87 297.148 456.93 295.923 463.249C293.969 473.332 290.313 483.396 286.96 485.564L286.958 485.563Z" fill="#43224D"/>
<path d="M215.148 447.592C212.624 460.614 213.113 471.661 216.239 472.267L227.56 474.461C230.686 475.067 235.266 465.002 237.79 451.981C240.314 438.959 239.826 427.913 236.7 427.307L225.378 425.112C222.252 424.506 217.672 434.571 215.148 447.592Z" fill="#FFB1F9"/>
<path d="M226.155 473.778C226.518 474.294 226.963 474.642 227.504 474.747C227.662 474.777 227.814 474.675 227.845 474.516C227.875 474.358 227.771 474.206 227.614 474.175C226.267 473.914 225.382 471.213 225.186 466.767C224.981 462.129 225.538 456.118 226.754 449.842C229.455 435.909 234.047 427.089 236.643 427.592C236.802 427.623 236.954 427.52 236.984 427.362C237.015 427.203 236.912 427.051 236.754 427.021C233.032 426.299 228.456 438.002 226.181 449.731C224.957 456.05 224.396 462.109 224.604 466.792C224.715 469.326 225.091 472.27 226.153 473.778L226.155 473.778Z" fill="#43224D"/>
<path d="M220.494 472.681C220.858 473.197 221.303 473.545 221.843 473.649C222.002 473.68 222.154 473.577 222.185 473.419C222.215 473.261 222.112 473.109 221.954 473.078C220.609 472.817 219.722 470.117 219.526 465.67C219.321 461.032 219.878 455.021 221.094 448.745C222.311 442.469 224.04 436.686 225.963 432.46C227.806 428.408 229.636 426.234 230.983 426.495C231.141 426.526 231.294 426.423 231.324 426.265C231.355 426.106 231.252 425.954 231.094 425.923C228.97 425.512 226.843 429.12 225.432 432.219C223.49 436.485 221.746 442.315 220.521 448.634C219.297 454.953 218.736 461.012 218.943 465.694C219.055 468.229 219.431 471.173 220.493 472.681L220.494 472.681Z" fill="#43224D"/>
<path d="M232.416 450.939C232.12 452.467 231.865 453.967 231.652 455.427C231.82 455.495 231.993 455.548 232.175 455.584L245.727 458.21C248.224 458.694 250.641 457.062 251.124 454.566C251.608 452.069 249.976 449.652 247.48 449.168L233.928 446.541C233.746 446.506 233.565 446.489 233.384 446.492C233.038 447.925 232.712 449.413 232.416 450.939Z" fill="#43224D"/>
<path d="M284.647 461.063C284.351 462.591 284.026 464.077 283.679 465.511C283.498 465.512 283.317 465.496 283.135 465.461L271.889 463.281C269.393 462.797 267.761 460.38 268.245 457.884C268.728 455.387 271.145 453.755 273.642 454.239L284.887 456.418C285.07 456.454 285.243 456.506 285.411 456.576C285.196 458.035 284.943 459.536 284.647 461.063Z" fill="#43224D"/>
<path d="M269.926 484.343L267.654 501.621C252.465 500.44 242.518 496.752 242.518 496.752L245.317 482.31C245.317 482.31 261.598 471.849 269.926 484.344L269.926 484.343Z" fill="#7FE555"/>
<path d="M245.317 482.308C245.317 482.308 244.47 478.073 241.195 473.393C237.917 468.712 237.59 467.035 237.763 464.092C237.938 461.146 239.929 457.216 241.057 455.164C242.185 453.112 243.738 449.087 245.501 448.893C245.501 448.893 247.815 440.787 254.392 445.411C254.392 445.411 257.471 442.288 261.142 447.091C261.142 447.091 264.308 444.101 267.838 449.561C267.838 449.561 274.084 447.881 274.904 455.82C275.768 464.168 272.526 476.681 269.924 484.343C269.924 484.343 260.392 485.279 245.316 482.308L245.317 482.308Z" fill="#FFA38A"/>
<path d="M262.565 474.511C262.541 474.526 262.515 474.539 262.487 474.548C262.313 474.603 262.128 474.509 262.073 474.335C259.895 467.567 247.97 461.862 247.85 461.805C247.698 461.734 247.625 461.558 247.68 461.399C249.139 457.21 249.274 453.924 248.081 451.633C247.072 449.697 245.429 449.212 245.412 449.207C245.238 449.158 245.135 448.977 245.184 448.802C245.233 448.628 245.413 448.525 245.588 448.573C245.665 448.595 247.506 449.123 248.653 451.308C249.917 453.716 249.829 457.089 248.395 461.337C250.24 462.245 260.591 467.589 262.697 474.132C262.744 474.277 262.685 474.43 262.562 474.509L262.565 474.511Z" fill="#43224D"/>
<path d="M253.661 462.046C253.036 462.45 252.444 462.54 251.955 462.499C250.239 462.356 248.868 460.554 248.448 458.931C248.403 458.755 248.508 458.575 248.684 458.53C248.86 458.485 249.04 458.591 249.085 458.767C249.454 460.19 250.649 461.73 252.009 461.844C253.204 461.944 254.314 460.927 255.219 458.902C258.259 452.101 254.158 445.656 254.117 445.591C254.018 445.438 254.061 445.235 254.213 445.136C254.366 445.038 254.569 445.081 254.668 445.233C254.712 445.3 259.003 452.046 255.818 459.17C255.125 460.718 254.371 461.587 253.66 462.047L253.661 462.046Z" fill="#43224D"/>
<path d="M260.101 463.429C259.137 464.053 258.264 463.888 257.706 463.647C255.946 462.884 254.736 460.221 255.21 458.922C255.273 458.752 255.462 458.665 255.633 458.727C255.803 458.789 255.891 458.979 255.828 459.149C255.492 460.067 256.441 462.383 257.968 463.044C259.532 463.721 260.723 462.154 261.446 460.72C264.618 454.433 260.891 447.317 260.853 447.246C260.768 447.086 260.83 446.885 260.989 446.8C261.149 446.714 261.348 446.775 261.434 446.935C261.474 447.01 265.362 454.42 262.035 461.016C261.395 462.285 260.73 463.024 260.102 463.43L260.101 463.429Z" fill="#43224D"/>
<path d="M266.149 465.049C265.288 465.606 264.522 465.556 264.173 465.488C262.456 465.157 261.217 463.071 261.412 460.838C261.428 460.658 261.587 460.523 261.768 460.54C261.949 460.555 262.083 460.715 262.068 460.896C261.901 462.803 262.901 464.574 264.297 464.843C265.801 465.133 267.222 463.575 268.097 460.677C270.15 453.882 267.588 449.78 267.561 449.739C267.463 449.586 267.506 449.383 267.659 449.285C267.812 449.186 268.015 449.23 268.114 449.381C268.227 449.556 270.874 453.761 268.727 460.866C267.994 463.293 267.021 464.483 266.147 465.048L266.149 465.049Z" fill="#43224D"/>
<path d="M273.068 465.4C272.083 466.037 271.18 466.237 270.37 465.993C268.312 465.376 267.726 462.151 267.701 462.014C267.671 461.836 267.79 461.665 267.969 461.633C268.148 461.601 268.318 461.722 268.35 461.9C268.355 461.929 268.89 464.864 270.56 465.363C271.583 465.669 272.871 465.008 274.388 463.398C274.514 463.265 274.721 463.259 274.853 463.384C274.984 463.508 274.991 463.717 274.867 463.849C274.241 464.512 273.641 465.031 273.068 465.4Z" fill="#43224D"/>
<path d="M241.011 441.008C240.907 440.988 240.838 440.887 240.857 440.782C241.176 438.993 241.006 437.639 240.337 436.65C239.669 435.66 238.478 434.997 236.699 434.624C236.594 434.602 236.526 434.501 236.546 434.397C236.567 434.292 236.668 434.224 236.773 434.243C238.562 434.562 239.915 434.391 240.905 433.723C241.894 433.054 242.558 431.863 242.931 430.084C242.953 429.98 243.053 429.912 243.158 429.932C243.263 429.952 243.331 430.053 243.312 430.158C242.993 431.948 243.163 433.302 243.832 434.29C244.5 435.28 245.691 435.944 247.47 436.316C247.575 436.338 247.643 436.439 247.623 436.544C247.602 436.648 247.502 436.716 247.397 436.697C245.607 436.378 244.253 436.549 243.265 437.218C242.275 437.886 241.611 439.077 241.238 440.856C241.217 440.96 241.116 441.029 241.011 441.008Z" fill="#F9D72A"/>
<path d="M271.388 504.178C271.235 504.148 271.135 504.002 271.163 503.849C271.627 501.241 271.379 499.27 270.405 497.828C269.432 496.387 267.696 495.418 265.103 494.875C264.951 494.843 264.853 494.696 264.882 494.544C264.912 494.391 265.058 494.292 265.211 494.32C267.819 494.784 269.791 494.535 271.232 493.562C272.674 492.588 273.642 490.852 274.185 488.26C274.217 488.107 274.364 488.009 274.516 488.039C274.669 488.068 274.769 488.214 274.74 488.368C274.277 490.975 274.525 492.947 275.498 494.389C276.472 495.83 278.208 496.799 280.8 497.341C280.953 497.374 281.051 497.521 281.021 497.673C280.992 497.825 280.846 497.925 280.693 497.897C278.085 497.433 276.113 497.682 274.671 498.655C273.23 499.628 272.262 501.364 271.719 503.957C271.686 504.109 271.539 504.207 271.388 504.178Z" fill="#DB1D1D"/>
<path d="M281.631 438.982C281.505 438.957 281.423 438.835 281.445 438.709C281.829 436.546 281.624 434.91 280.816 433.715C280.008 432.519 278.569 431.716 276.419 431.266C276.293 431.24 276.211 431.117 276.236 430.991C276.26 430.865 276.382 430.783 276.508 430.805C278.671 431.189 280.307 430.984 281.502 430.176C282.699 429.368 283.501 427.928 283.951 425.778C283.977 425.653 284.1 425.571 284.226 425.595C284.352 425.62 284.434 425.741 284.413 425.868C284.028 428.03 284.233 429.667 285.041 430.862C285.849 432.058 287.289 432.861 289.439 433.311C289.564 433.336 289.646 433.46 289.622 433.586C289.598 433.712 289.476 433.794 289.349 433.772C287.187 433.388 285.55 433.593 284.355 434.401C283.16 435.209 282.356 436.649 281.906 438.798C281.881 438.924 281.758 439.006 281.631 438.982Z" fill="#F39010"/>
<path d="M279.034 374.002C233.559 386.853 207.762 296.81 243.275 273.923C269.634 256.934 284.133 274.696 297.467 277.237C310.801 279.777 330.817 268.591 349.084 294.079C373.695 328.42 316.601 402.67 279.034 374.002Z" fill="#DB1D1D"/>
<path d="M320.351 246.208L320.344 246.212L320.331 246.22L320.278 246.254C320.262 246.265 320.242 246.277 320.221 246.293L320.159 246.335C320.078 246.388 319.992 246.453 319.906 246.515C319.821 246.575 319.732 246.642 319.645 246.707C319.557 246.774 319.471 246.838 319.381 246.907C319.205 247.046 319.027 247.182 318.851 247.328C318.673 247.472 318.496 247.617 318.321 247.767C317.619 248.366 316.925 248.996 316.255 249.658C314.904 250.974 313.628 252.399 312.415 253.882C311.203 255.37 310.065 256.926 308.988 258.533C307.919 260.146 306.923 261.813 305.984 263.518L305.294 264.807C305.176 265.021 305.074 265.242 304.962 265.458L304.636 266.112L304.309 266.768C304.201 266.988 304.102 267.211 303.998 267.431L303.381 268.762L302.799 270.112L302.509 270.787C302.412 271.012 302.326 271.242 302.235 271.469L301.694 272.838C301.601 273.064 301.52 273.297 301.437 273.527L301.185 274.219C299.846 277.916 298.756 281.719 297.899 285.587L297.898 285.591C297.66 286.664 296.599 287.34 295.525 287.103C294.493 286.875 293.827 285.876 293.992 284.843C294.65 280.775 295.56 276.735 296.748 272.758L296.97 272.012C297.045 271.764 297.115 271.514 297.2 271.268L297.69 269.789C297.772 269.542 297.85 269.293 297.938 269.05L298.204 268.316L298.74 266.848L299.315 265.393C299.413 265.152 299.504 264.907 299.606 264.666L299.915 263.947L300.224 263.227C300.33 262.987 300.426 262.746 300.539 262.509L301.198 261.084C302.102 259.196 303.075 257.333 304.136 255.512C305.206 253.697 306.355 251.92 307.599 250.2C308.845 248.481 310.175 246.81 311.631 245.219C312.353 244.42 313.111 243.644 313.906 242.885C314.102 242.695 314.306 242.507 314.511 242.32C314.713 242.133 314.927 241.947 315.136 241.763C315.239 241.671 315.351 241.578 315.459 241.486C315.568 241.395 315.676 241.302 315.791 241.21C315.905 241.117 316.016 241.027 316.141 240.93L316.232 240.86L316.328 240.786L316.431 240.709L316.489 240.667L316.566 240.611C318.111 239.567 320.208 239.973 321.252 241.518C322.296 243.063 321.891 245.16 320.345 246.205L320.351 246.208Z" fill="#43224D"/>
<path d="M341.208 315.725C340.374 315.567 339.704 314.881 339.605 313.992C338.823 306.969 335.638 301.189 330.145 296.811C325.969 293.483 321.947 292.247 321.908 292.233C320.858 291.917 320.261 290.809 320.575 289.759C320.889 288.708 321.991 288.11 323.044 288.423C323.233 288.479 327.727 289.841 332.492 293.595C335.299 295.808 337.631 298.403 339.425 301.31C341.667 304.946 343.057 309.064 343.559 313.55C343.681 314.642 342.895 315.625 341.804 315.747C341.601 315.77 341.401 315.76 341.21 315.724L341.208 315.725Z" fill="#FFEEEE"/>
</svg>
