<svg width="125" height="110" viewBox="0 0 125 110" fill="none" xmlns="http://www.w3.org/2000/svg">
<path d="M88.56 109.94H21.39C9.6 109.94 0 100.35 0 88.55V21.39C0 9.59 9.59 0 21.39 0H88.56C100.35 0 109.95 9.59 109.95 21.39C109.95 23.98 107.85 26.09 105.25 26.09C102.65 26.09 100.55 23.99 100.55 21.39C100.55 14.78 95.17 9.4 88.56 9.4H21.39C14.78 9.4 9.4 14.78 9.4 21.39V88.56C9.4 95.17 14.78 100.55 21.39 100.55H88.56C95.17 100.55 100.55 95.17 100.55 88.56C100.55 85.97 102.65 83.86 105.25 83.86C107.85 83.86 109.95 85.96 109.95 88.56C109.95 100.35 100.36 109.95 88.56 109.95V109.94Z" fill="#FF00EA"/>
<path d="M55.32 53.92C59.82 51.09 62.81 46.09 62.81 40.38C62.81 31.54 55.64 24.37 46.8 24.37C37.96 24.37 30.79 31.54 30.79 40.38C30.79 46.09 33.79 51.08 38.28 53.92C30.2 57.26 24.51 65.23 24.51 74.52V78.34C24.51 80.6 26.35 82.44 28.61 82.44H64.98C67.24 82.44 69.08 80.6 69.08 78.34V74.52C69.08 65.23 63.39 57.27 55.31 53.92H55.32Z" fill="#FF00EA"/>
<path d="M122.49 49.9L105.1 34.37C103.17 32.64 100.2 32.81 98.4701 34.74C96.7401 36.67 96.9101 39.65 98.8401 41.37L107.05 48.7H80.7601C78.1701 48.7 76.0601 50.8 76.0601 53.4C76.0601 56 78.1601 58.1 80.7601 58.1H107.05L98.8401 65.43C96.9001 67.16 96.7401 70.13 98.4701 72.06C99.4001 73.1 100.68 73.63 101.98 73.63C103.09 73.63 104.21 73.24 105.11 72.44L122.5 56.91C123.5 56.02 124.07 54.74 124.07 53.41C124.07 52.08 123.5 50.8 122.5 49.91L122.49 49.9Z" fill="#FF00EA"/>
</svg>
