<svg width="679" height="679" viewBox="0 0 679 679" fill="none" xmlns="http://www.w3.org/2000/svg">
<circle cx="339.5" cy="339.5" r="339.5" fill="#D3FFFB"/>
<path d="M475.396 246.783C475.396 246.783 462.065 276.864 446.734 307.974C431.402 339.084 422.78 361.043 422.78 361.043L493.257 384.513C493.257 384.513 512.268 328.206 526.998 263.961C526.998 263.961 509.829 240.771 475.396 246.783Z" fill="#FFA38A"/>
<path d="M620.506 209.026L411.372 139.383C406.247 137.676 403.475 132.137 405.182 127.011C406.889 121.886 412.428 119.114 417.554 120.821L626.688 190.464C631.813 192.171 634.585 197.71 632.878 202.836C631.171 207.961 625.632 210.733 620.506 209.026Z" fill="#43224D"/>
<path d="M608.138 194.597C599.237 221.328 586.818 241.265 580.401 239.128L557.159 231.389C550.742 229.252 552.756 205.85 561.658 179.119C570.559 152.388 582.978 132.451 589.395 134.588L612.636 142.328C619.053 144.465 617.04 167.866 608.138 194.597Z" fill="#FFB1F9"/>
<path d="M560.471 231.589C559.26 232.164 558.074 232.345 556.964 231.975C556.639 231.867 556.465 231.518 556.573 231.193C556.681 230.868 557.03 230.694 557.355 230.802C560.12 231.723 564.574 227.647 569.571 219.622C574.785 211.252 580.02 199.546 584.31 186.662C588.6 173.779 591.428 161.274 592.274 151.447C593.085 142.028 591.965 136.096 589.199 135.175C588.874 135.067 588.7 134.718 588.808 134.393C588.916 134.068 589.265 133.893 589.59 134.001C593.95 135.453 594.127 144.348 593.508 151.555C592.655 161.474 589.806 174.082 585.486 187.054C581.166 200.026 575.888 211.825 570.623 220.275C567.775 224.849 564.011 229.907 560.473 231.59L560.471 231.589Z" fill="#43224D"/>
<path d="M572.079 235.455C570.829 236.048 569.655 236.202 568.584 235.845C568.259 235.737 568.084 235.388 568.192 235.063C568.301 234.738 568.649 234.563 568.974 234.672C569.707 234.915 570.572 234.797 571.539 234.338C577.59 231.464 587.717 215.195 595.929 190.532C600.22 177.648 603.047 165.143 603.893 155.317C604.705 145.897 603.584 139.965 600.819 139.044C600.494 138.936 600.319 138.587 600.428 138.262C600.536 137.937 600.885 137.763 601.21 137.871C605.569 139.323 605.746 148.218 605.127 155.425C604.274 165.344 601.425 177.952 597.105 190.924C590.212 211.623 579.741 231.814 572.082 235.455L572.079 235.455Z" fill="#43224D"/>
<path d="M431.288 135.705C422.386 162.436 420.373 185.838 426.79 187.975L450.031 195.714C456.448 197.851 468.867 177.914 477.768 151.183C486.67 124.452 488.683 101.051 482.266 98.9137L459.025 91.1741C452.608 89.0372 440.189 108.974 431.288 135.705Z" fill="#FFB1F9"/>
<path d="M447.259 193.888C447.882 195.075 448.723 195.93 449.833 196.3C450.158 196.408 450.507 196.234 450.615 195.909C450.723 195.584 450.546 195.234 450.224 195.127C447.459 194.206 446.338 188.274 447.149 178.854C447.995 169.03 450.823 156.523 455.113 143.639C464.638 115.038 476.739 97.725 482.068 99.4996C482.393 99.6078 482.742 99.4333 482.85 99.1083C482.959 98.7833 482.784 98.4346 482.459 98.3264C474.819 95.7823 461.958 119.17 453.937 143.248C449.618 156.219 446.768 168.827 445.916 178.747C445.453 184.115 445.434 190.42 447.256 193.887L447.259 193.888Z" fill="#43224D"/>
<path d="M435.639 190.019C436.263 191.206 437.104 192.061 438.214 192.43C438.539 192.539 438.888 192.364 438.996 192.039C439.104 191.714 438.929 191.365 438.604 191.257C435.842 190.337 434.718 184.407 435.53 174.985C436.375 165.161 439.204 152.653 443.494 139.77C447.784 126.886 453.018 115.183 458.233 106.81C463.23 98.7852 467.684 94.7092 470.449 95.63C470.774 95.7382 471.123 95.5637 471.231 95.2387C471.339 94.9137 471.165 94.565 470.84 94.4568C466.48 93.0049 461.006 100.018 457.181 106.157C451.916 114.607 446.638 126.406 442.318 139.378C437.998 152.35 435.149 164.957 434.296 174.877C433.833 180.245 433.814 186.55 435.636 190.018L435.639 190.019Z" fill="#43224D"/>
<path d="M466.736 147.509C465.691 150.646 464.742 153.735 463.891 156.75C464.225 156.941 464.576 157.1 464.95 157.225L492.769 166.489C497.895 168.196 503.434 165.424 505.141 160.299C506.848 155.173 504.076 149.633 498.951 147.927L471.132 138.663C470.757 138.538 470.382 138.453 469.999 138.408C468.875 141.332 467.779 144.375 466.736 147.509Z" fill="#43224D"/>
<path d="M573.957 183.215C572.913 186.352 571.82 189.393 570.694 192.316C570.312 192.269 569.936 192.186 569.561 192.061L546.477 184.374C541.351 182.667 538.579 177.127 540.286 172.002C541.993 166.877 547.533 164.105 552.658 165.811L575.743 173.499C576.117 173.624 576.469 173.78 576.802 173.974C575.948 176.988 575.001 180.081 573.957 183.215Z" fill="#43224D"/>
<path d="M536.541 228.194L526.998 263.961C495.333 257.289 475.396 246.783 475.396 246.783L485.269 217.135C485.269 217.135 522.442 199.586 536.54 228.197L536.541 228.194Z" fill="#7FE555"/>
<path d="M485.27 217.132C485.27 217.132 484.653 207.978 479.042 197.218C473.429 186.458 473.2 182.836 474.377 176.683C475.555 170.528 480.83 162.798 483.772 158.787C486.714 154.777 491.093 146.726 494.858 146.802C494.858 146.802 501.965 130.368 514.545 141.919C514.545 141.919 521.89 136.187 528.299 147.316C528.299 147.316 535.79 141.889 541.721 154.362C541.721 154.362 555.339 152.542 554.881 169.489C554.402 187.31 544.127 212.773 536.538 228.193C536.538 228.193 516.202 227.54 485.267 217.131L485.27 217.132Z" fill="#FFA38A"/>
<path d="M523.745 205.459C523.69 205.484 523.632 205.504 523.57 205.514C523.189 205.583 522.826 205.334 522.757 204.953C520.033 190.098 496.488 174.798 496.252 174.646C495.951 174.454 495.846 174.064 496.004 173.744C500.232 165.321 501.419 158.438 499.538 153.283C497.947 148.929 494.62 147.454 494.585 147.439C494.231 147.288 494.065 146.878 494.217 146.524C494.368 146.171 494.775 146.004 495.13 146.152C495.288 146.22 499.02 147.839 500.833 152.757C502.831 158.177 501.719 165.256 497.527 173.81C501.164 176.23 521.493 190.336 524.127 204.696C524.186 205.016 524.02 205.322 523.74 205.455L523.745 205.459Z" fill="#43224D"/>
<path d="M508.424 176.754C506.996 177.431 505.724 177.458 504.705 177.238C501.132 176.464 498.74 172.29 498.301 168.757C498.254 168.374 498.527 168.024 498.91 167.977C499.293 167.93 499.642 168.203 499.689 168.586C500.074 171.684 502.167 175.257 505 175.873C507.489 176.412 510.107 174.576 512.57 170.559C520.846 157.072 513.985 142.369 513.915 142.22C513.75 141.871 513.895 141.455 514.243 141.289C514.592 141.124 515.008 141.272 515.174 141.618C515.249 141.771 522.429 157.162 513.759 171.288C511.874 174.36 510.046 175.981 508.42 176.755L508.424 176.754Z" fill="#43224D"/>
<path d="M521.607 181.44C519.404 182.487 517.611 181.899 516.503 181.24C513.005 179.148 511.19 173.205 512.547 170.6C512.725 170.259 513.148 170.127 513.49 170.305C513.832 170.483 513.966 170.907 513.785 171.248C512.826 173.089 514.186 178.229 517.221 180.041C520.328 181.899 523.268 178.925 525.186 176.103C533.597 163.735 527.708 147.722 527.648 147.561C527.511 147.2 527.698 146.795 528.055 146.659C528.416 146.523 528.82 146.706 528.957 147.067C529.02 147.235 535.169 163.913 526.344 176.89C524.646 179.387 523.042 180.759 521.61 181.441L521.607 181.44Z" fill="#43224D"/>
<path d="M533.899 186.516C531.932 187.452 530.333 187.136 529.617 186.898C526.09 185.727 524.057 180.993 525.082 176.344C525.164 175.968 525.538 175.728 525.913 175.813C526.29 175.896 526.529 176.269 526.447 176.646C525.571 180.616 527.19 184.621 530.055 185.572C533.143 186.598 536.565 183.708 539.206 177.844C545.402 164.099 541.135 154.754 541.09 154.659C540.924 154.311 541.072 153.895 541.421 153.729C541.769 153.564 542.185 153.712 542.352 154.058C542.543 154.458 546.96 164.043 540.482 178.416C538.268 183.326 535.892 185.564 533.896 186.515L533.899 186.516Z" fill="#43224D"/>
<path d="M548.376 189.162C546.126 190.233 544.169 190.404 542.529 189.668C538.366 187.801 538.019 180.848 538.005 180.552C537.989 180.168 538.287 179.842 538.673 179.823C539.058 179.805 539.383 180.106 539.402 180.491C539.405 180.554 539.724 186.883 543.103 188.394C545.173 189.319 548.069 188.282 551.706 185.308C552.008 185.063 552.446 185.108 552.689 185.406C552.933 185.704 552.89 186.146 552.591 186.389C551.091 187.615 549.684 188.542 548.376 189.162Z" fill="#43224D"/>
<path d="M487.574 128.96C487.359 128.889 487.243 128.657 487.312 128.442C488.477 124.76 488.491 121.861 487.354 119.595C486.219 117.327 483.894 115.601 480.249 114.326C480.035 114.251 479.919 114.02 479.991 113.805C480.062 113.59 480.294 113.475 480.509 113.544C484.191 114.708 487.087 114.721 489.356 113.586C491.624 112.451 493.35 110.125 494.625 106.481C494.7 106.267 494.931 106.151 495.146 106.222C495.36 106.294 495.476 106.525 495.407 106.741C494.243 110.422 494.229 113.321 495.365 115.587C496.5 117.856 498.826 119.582 502.47 120.857C502.684 120.931 502.8 121.162 502.729 121.377C502.657 121.592 502.426 121.708 502.21 121.639C498.529 120.474 495.63 120.46 493.364 121.597C491.095 122.732 489.369 125.057 488.094 128.702C488.02 128.916 487.789 129.032 487.574 128.96Z" fill="#F9D72A"/>
<path d="M534.157 270.374C533.844 270.269 533.674 269.934 533.775 269.619C535.47 264.254 535.49 260.033 533.837 256.729C532.184 253.425 528.794 250.907 523.483 249.05C523.171 248.939 523.005 248.603 523.108 248.291C523.213 247.977 523.548 247.807 523.863 247.909C529.228 249.604 533.449 249.624 536.753 247.971C540.057 246.317 542.575 242.928 544.432 237.617C544.543 237.305 544.879 237.138 545.191 237.242C545.504 237.347 545.675 237.682 545.573 237.997C543.878 243.361 543.858 247.583 545.511 250.887C547.165 254.191 550.554 256.709 555.865 258.566C556.177 258.676 556.344 259.013 556.24 259.324C556.135 259.638 555.8 259.808 555.485 259.707C550.12 258.012 545.899 257.992 542.595 259.645C539.291 261.298 536.773 264.688 534.916 269.999C534.806 270.311 534.469 270.477 534.157 270.374Z" fill="#DB1D1D"/>
<path d="M573.687 135.877C573.428 135.791 573.288 135.512 573.369 135.251C574.774 130.802 574.793 127.3 573.42 124.56C572.048 121.817 569.236 119.731 564.832 118.191C564.574 118.102 564.436 117.82 564.522 117.561C564.608 117.302 564.887 117.163 565.148 117.244C569.597 118.649 573.1 118.668 575.839 117.295C578.582 115.922 580.668 113.111 582.208 108.707C582.297 108.449 582.579 108.311 582.838 108.397C583.097 108.483 583.236 108.762 583.156 109.023C581.751 113.471 581.731 116.974 583.104 119.714C584.477 122.456 587.288 124.543 591.692 126.083C591.95 126.172 592.088 126.454 592.002 126.712C591.916 126.971 591.637 127.111 591.376 127.03C586.928 125.625 583.425 125.606 580.685 126.979C577.945 128.352 575.856 131.163 574.316 135.567C574.227 135.825 573.945 135.963 573.687 135.877Z" fill="#F39010"/>
<path d="M548.88 514.24V420.13C548.88 393.65 527.416 372.187 500.936 372.187H231.035V466.297H500.936C527.416 466.297 548.88 487.76 548.88 514.24Z" fill="#FFEEEE"/>
<path d="M321.654 611.825C211.563 666.873 101.666 449.056 181.377 373.184C240.541 316.867 286.298 355.248 321.654 355.248C357.01 355.248 402.772 316.872 461.936 373.184C541.647 449.056 431.75 666.868 321.654 611.825Z" fill="#DB1D1D"/>
<path d="M365.083 264.701L365.067 264.716L365.036 264.742L364.919 264.854C364.883 264.89 364.837 264.931 364.791 264.982L364.653 265.121C364.473 265.295 364.284 265.504 364.095 265.704C363.905 265.899 363.711 266.114 363.521 266.323C363.327 266.538 363.137 266.743 362.943 266.963C362.559 267.404 362.17 267.839 361.791 268.299C361.407 268.755 361.023 269.21 360.65 269.681C359.145 271.555 357.676 273.505 356.283 275.527C353.468 279.551 350.898 283.82 348.518 288.207C346.143 292.604 343.988 297.139 342.017 301.777C340.067 306.424 338.331 311.175 336.76 315.997L335.624 319.631C335.424 320.235 335.27 320.849 335.091 321.459L334.574 323.291L334.057 325.129C333.888 325.743 333.745 326.362 333.586 326.977L332.655 330.683L331.825 334.419L331.411 336.288C331.273 336.912 331.165 337.542 331.042 338.166L330.326 341.934C330.198 342.558 330.105 343.193 330.003 343.823L329.696 345.717C328.073 355.826 327.137 366.09 326.829 376.404V376.414C326.742 379.276 324.357 381.523 321.496 381.441C318.742 381.359 316.551 379.127 316.469 376.404C316.172 365.675 316.53 354.895 317.631 344.14L317.836 342.123C317.907 341.453 317.964 340.777 318.061 340.107L318.593 336.083C318.685 335.413 318.762 334.737 318.87 334.071L319.192 332.065L319.847 328.047L320.61 324.044C320.743 323.378 320.856 322.708 320.999 322.042L321.439 320.051L321.879 318.06C322.033 317.394 322.161 316.729 322.335 316.068L323.328 312.101C324.72 306.829 326.302 301.587 328.13 296.412C329.983 291.247 332.056 286.139 334.4 281.132C336.75 276.126 339.34 271.202 342.288 266.421C343.747 264.025 345.308 261.67 346.972 259.341C347.382 258.758 347.812 258.179 348.247 257.601C348.671 257.023 349.127 256.444 349.572 255.871C349.793 255.584 350.033 255.292 350.263 255.006C350.499 254.719 350.729 254.427 350.98 254.135C351.226 253.844 351.466 253.557 351.738 253.25L351.937 253.025L352.147 252.789L352.372 252.544L352.5 252.405L352.669 252.226C356.114 248.802 361.678 248.817 365.103 252.262C368.527 255.707 368.512 261.271 365.067 264.696L365.083 264.701Z" fill="#43224D"/>
<path d="M548.88 418.353V512.463C548.88 538.943 527.416 560.406 500.936 560.406H231.035V466.296H500.936C508.968 466.296 516.534 464.325 523.183 460.834C524.365 460.215 525.517 459.549 526.638 458.833C540.014 450.325 548.885 435.373 548.885 418.353H548.88Z" fill="#F9D72A"/>
<path d="M452.333 432.409C450.122 432.409 448.074 430.981 447.388 428.755C441.962 411.166 430.998 397.929 414.807 389.406C402.501 382.926 391.608 381.723 391.501 381.707C388.66 381.41 386.592 378.866 386.884 376.025C387.175 373.184 389.704 371.116 392.55 371.403C393.062 371.454 405.224 372.749 419.245 380.033C427.507 384.328 434.74 389.831 440.744 396.393C448.253 404.604 453.818 414.463 457.288 425.699C458.133 428.432 456.602 431.329 453.869 432.174C453.362 432.333 452.845 432.404 452.338 432.404L452.333 432.409Z" fill="#FFEEEE"/>
<path d="M260.284 466.296H256.829V499.502H260.284V466.296Z" fill="#43224D"/>
<path d="M286.918 466.296H283.463V499.502H286.918V466.296Z" fill="#43224D"/>
<path d="M313.556 466.296H310.101V514.239H313.556V466.296Z" fill="#43224D"/>
<path d="M340.189 466.296H336.734V499.502H340.189V466.296Z" fill="#43224D"/>
<path d="M366.828 466.296H363.373V499.502H366.828V466.296Z" fill="#43224D"/>
<path d="M393.461 466.296H390.006V514.239H393.461V466.296Z" fill="#43224D"/>
<path d="M420.095 466.296H416.639V499.502H420.095V466.296Z" fill="#43224D"/>
<path d="M446.733 466.296H443.278V499.502H446.733V466.296Z" fill="#43224D"/>
<path d="M473.366 466.296H469.911V514.239H473.366V466.296Z" fill="#43224D"/>
<path d="M500 466.296H496.545V499.502H500V466.296Z" fill="#43224D"/>
<path d="M526.633 458.833V499.502H523.178V460.834C524.36 460.215 525.512 459.55 526.633 458.833Z" fill="#43224D"/>
<path d="M318.58 137.5C320.435 149.914 317.553 163.033 309.498 173.918L307.06 177.218L248.72 256.057L169.881 197.718L166.579 195.275C155.694 187.22 149.102 175.513 147.248 163.103C145.393 150.693 148.271 137.571 156.33 126.685C172.439 104.915 203.149 100.326 224.919 116.436L228.22 118.878L230.659 115.578C246.769 93.8077 277.478 89.2186 299.248 105.328C310.133 113.383 316.725 125.085 318.58 137.5Z" fill="#DB1D1D"/>
<path d="M237.114 183.877C237.114 183.877 237.09 183.881 237.078 183.883C236.705 183.926 236.342 183.754 236.135 183.443L207.803 140.975L198.733 168.191C198.613 168.547 198.306 168.807 197.932 168.863L171.766 172.773C171.218 172.855 170.713 172.477 170.631 171.933C170.55 171.39 170.927 170.88 171.471 170.799L197.029 166.98L206.551 138.411C206.67 138.055 206.977 137.796 207.352 137.74C207.356 137.739 207.36 137.738 207.368 137.737C207.747 137.685 208.119 137.856 208.331 138.174L236.718 180.729L251.887 140.683C252.014 140.343 252.315 140.1 252.674 140.047L252.682 140.046C253.044 139.992 253.405 140.148 253.622 140.441L272.052 165.256L278.981 153.617C279.136 153.359 279.394 153.185 279.692 153.14L297.44 150.488C297.988 150.406 298.493 150.784 298.574 151.327C298.656 151.871 298.279 152.381 297.735 152.462L280.459 155.044L273.007 167.564C272.836 167.853 272.533 168.034 272.198 168.051C271.863 168.068 271.544 167.918 271.343 167.648L253.108 143.095L237.897 183.25C237.771 183.59 237.466 183.833 237.111 183.886L237.114 183.877Z" fill="#FFEEEE"/>
<path d="M162.312 366.142C162.312 366.142 164.835 362.68 169.408 360.781C173.984 358.883 211.905 346.581 229.988 312.066C248.07 277.55 231.086 236.661 231.086 236.661C231.086 236.661 211.423 226.818 210.476 246.578C210.476 246.578 219.368 275.843 206.03 297.47C192.692 319.096 173.384 324.053 169.404 324.951C169.404 324.951 144.197 359.948 162.308 366.142H162.312Z" fill="#FFA897"/>
<path d="M212.146 254.078C212.146 254.078 209.986 247.497 205.948 243.99C201.906 240.483 201.229 239.037 200.718 236.322C200.208 233.607 201.123 229.586 201.682 227.467C202.241 225.348 202.735 221.339 204.291 220.759C204.291 220.759 204.548 212.871 211.574 215.574C211.574 215.574 213.661 212.038 218.086 215.566C218.086 215.566 220.283 212.128 224.729 216.288C224.729 216.288 230.02 213.341 232.572 220.367C235.254 227.753 235.156 239.854 234.536 247.403C234.536 247.403 226.517 253.348 212.15 254.078H212.146Z" fill="#F98B85"/>
<path d="M211.57 218.987C211.399 218.987 211.264 218.848 211.264 218.681V215.578C211.264 215.406 211.403 215.271 211.57 215.271C211.738 215.271 211.877 215.41 211.877 215.578V218.681C211.877 218.852 211.738 218.987 211.57 218.987Z" fill="#43224D"/>
<path d="M218.34 218.987C218.18 218.987 218.046 218.864 218.033 218.705L217.776 215.594C217.764 215.422 217.886 215.275 218.058 215.263C218.229 215.247 218.376 215.373 218.389 215.545L218.646 218.656C218.658 218.827 218.536 218.974 218.364 218.987C218.356 218.987 218.348 218.987 218.34 218.987Z" fill="#43224D"/>
<path d="M225.015 219.068C224.86 219.068 224.729 218.954 224.709 218.795L224.423 216.325C224.402 216.157 224.525 216.002 224.692 215.982C224.86 215.961 225.015 216.084 225.035 216.251L225.321 218.721C225.342 218.889 225.219 219.044 225.052 219.064C225.039 219.064 225.027 219.064 225.015 219.064V219.068Z" fill="#43224D"/>
<path d="M168.367 353.469C168.293 353.469 168.22 353.444 168.162 353.391C168.036 353.277 168.024 353.085 168.138 352.958C168.358 352.714 173.597 346.916 180.145 346.916C180.317 346.916 180.452 347.055 180.452 347.222C180.452 347.39 180.313 347.528 180.145 347.528C173.866 347.528 168.648 353.305 168.595 353.363C168.534 353.432 168.448 353.465 168.367 353.465V353.469Z" fill="#43224D"/>
<path d="M217.221 310.502C217.176 310.502 217.127 310.49 217.082 310.469C209.876 306.811 204.017 308.595 203.96 308.616L203.858 308.326L203.699 308.065C203.744 308.036 209.77 306.072 217.364 309.922C217.515 310 217.576 310.183 217.499 310.335C217.445 310.441 217.335 310.502 217.225 310.502H217.221Z" fill="#43224D"/>
<path d="M126.429 489.462C126.429 489.462 156.641 492.43 178.022 476.397C178.022 476.397 141.355 464.814 126.429 489.462Z" fill="#43224D"/>
<path d="M97.8451 490.65C97.8451 490.65 63.1009 497.778 46.1738 479.067C46.1738 479.067 88.3405 473.722 97.8451 490.65Z" fill="#43224D"/>
<path d="M84.2537 530.366C83.5759 532.322 82.9145 534.221 82.2654 536.074C80.7384 540.443 79.3013 544.53 77.9621 548.331C71.642 566.315 67.596 577.959 67.2367 582.907C67.2367 582.948 67.2285 582.989 67.2285 583.026C67.2285 583.026 58.52 600.843 42.2829 583.026C42.2829 583.026 42.2829 583.018 42.2829 582.997C42.2829 582.989 42.2829 582.977 42.2829 582.969C42.3646 581.879 43.5894 565.139 45.3613 544.607C45.7124 540.553 46.0799 536.352 46.4718 532.093C48.7704 506.85 51.6528 479.618 54.1597 469.395L91.7741 475.335C91.7741 475.335 88.2098 481.275 86.6257 485.628C85.0416 489.984 94.1503 501.861 84.2496 530.371L84.2537 530.366Z" fill="#FFA897"/>
<path d="M82.2653 536.074C80.7384 540.443 79.3013 544.529 77.9621 548.33C71.642 566.315 67.596 577.959 67.2367 582.907C67.2367 582.948 67.2285 582.989 67.2285 583.026C67.2285 583.026 58.52 600.843 42.2829 583.026C42.2829 583.026 42.2829 583.018 42.2829 582.997C42.2829 582.989 42.2829 582.977 42.2829 582.968C42.3646 581.878 43.5894 565.139 45.3613 544.607C45.7124 540.553 46.0799 536.352 46.4718 532.093C51.5916 533.931 67.5593 537.058 82.2653 536.078V536.074Z" fill="#FFEEEE"/>
<path d="M67.2286 583.026C67.2286 583.026 55.7478 585.994 42.2829 583.026C42.2829 583.026 40.6988 589.857 38.3226 595.201C35.9465 600.545 23.4737 605.889 22.5836 610.94C21.6936 615.986 18.9214 621.335 42.2829 622.225C65.6445 623.115 58.516 612.426 61.4841 609.454C64.4523 606.486 68.9066 607.968 68.9066 601.137C68.9066 594.307 67.9186 587.774 67.2245 583.022L67.2286 583.026Z" fill="#7FE555"/>
<path d="M53.7677 593.882C53.735 593.882 53.7024 593.882 53.6697 593.87L42.189 591.395C41.94 591.342 41.7807 591.097 41.8338 590.848C41.8869 590.599 42.1319 590.44 42.3809 590.493L53.8616 592.967C54.1107 593.02 54.2699 593.265 54.2168 593.514C54.1719 593.731 53.98 593.878 53.7677 593.878V593.882Z" fill="#43224D"/>
<path d="M50.7792 599.01C50.7506 599.01 50.722 599.01 50.6934 599.002L39.7067 596.924C39.4577 596.875 39.2903 596.634 39.3393 596.385C39.3883 596.136 39.6292 595.968 39.8782 596.017L50.8649 598.095C51.114 598.144 51.2813 598.385 51.2323 598.634C51.1915 598.855 50.9956 599.01 50.7792 599.01Z" fill="#43224D"/>
<path d="M48.0233 603.819C47.9988 603.819 47.9743 603.819 47.9498 603.815L37.0611 602.06C36.8079 602.019 36.6364 601.782 36.6773 601.529C36.7181 601.276 36.9549 601.104 37.208 601.145L48.0967 602.901C48.3499 602.942 48.5214 603.178 48.4805 603.432C48.4438 603.66 48.2478 603.819 48.0233 603.819Z" fill="#43224D"/>
<path d="M180.145 583.026C163.912 600.843 155.2 583.026 155.2 583.026C155.2 582.989 155.192 582.948 155.192 582.907C154.832 577.959 150.786 566.319 144.466 548.33C143.127 544.521 141.69 540.43 140.159 536.054C139.514 534.208 138.852 532.314 138.179 530.362C128.278 501.852 137.387 489.976 135.803 485.619C134.218 481.263 130.654 475.327 130.654 475.327L168.269 469.386C170.775 479.609 173.658 506.846 175.956 532.089C176.344 536.348 176.716 540.549 177.063 544.603C178.831 565.082 180.056 581.789 180.141 582.956C180.141 582.977 180.141 582.989 180.141 583.001C180.141 583.013 180.141 583.022 180.141 583.022L180.145 583.026Z" fill="#FFA897"/>
<path d="M180.145 583.026C163.912 600.843 155.2 583.026 155.2 583.026C155.2 582.989 155.192 582.948 155.192 582.907C154.832 577.959 150.786 566.319 144.466 548.331C143.127 544.521 141.69 540.43 140.159 536.054C154.889 537.095 170.837 533.939 175.961 532.089C176.348 536.348 176.72 540.549 177.067 544.603C178.835 565.082 180.06 581.789 180.145 582.956C180.145 582.977 180.145 582.989 180.145 583.001C180.145 583.014 180.145 583.022 180.145 583.022V583.026Z" fill="#FFEEEE"/>
<path d="M155.2 583.026C155.2 583.026 166.68 585.994 180.145 583.026C180.145 583.026 181.729 589.857 184.106 595.201C186.482 600.545 198.955 605.889 199.845 610.94C200.735 615.99 203.507 621.335 180.145 622.225C156.784 623.115 163.912 612.426 160.944 609.454C157.976 606.486 153.522 607.968 153.522 601.137C153.522 594.307 154.51 587.774 155.204 583.022L155.2 583.026Z" fill="#7FE555"/>
<path d="M168.661 593.882C168.448 593.882 168.256 593.735 168.211 593.519C168.158 593.27 168.318 593.025 168.567 592.972L180.047 590.498C180.296 590.444 180.541 590.604 180.595 590.853C180.648 591.102 180.488 591.347 180.239 591.4L168.759 593.874C168.726 593.882 168.693 593.886 168.661 593.886V593.882Z" fill="#43224D"/>
<path d="M171.649 599.01C171.433 599.01 171.237 598.855 171.196 598.634C171.147 598.385 171.314 598.14 171.563 598.095L182.55 596.017C182.799 595.968 183.044 596.136 183.089 596.385C183.138 596.634 182.971 596.879 182.722 596.924L171.735 599.002C171.706 599.006 171.678 599.01 171.649 599.01Z" fill="#43224D"/>
<path d="M174.405 603.819C174.18 603.819 173.985 603.656 173.948 603.432C173.907 603.178 174.078 602.942 174.332 602.901L185.22 601.145C185.473 601.104 185.71 601.276 185.751 601.529C185.792 601.782 185.62 602.019 185.367 602.06L174.479 603.815C174.454 603.815 174.43 603.819 174.405 603.819Z" fill="#43224D"/>
<path d="M102.099 326.335C102.099 326.335 104.476 322.771 104.672 317.822C104.867 312.874 106.056 275.059 132.189 246.158C158.323 217.256 200.49 220.224 200.49 220.224C200.49 220.224 216.527 235.269 198.314 242.989C198.314 242.989 169.485 245.561 153.807 265.559C138.13 285.552 138.448 304.59 138.983 308.632C138.983 308.632 114.176 341.184 102.099 326.335Z" fill="#FFA897"/>
<path d="M77.3538 391.467C77.3538 391.467 63.1009 417.004 56.5685 435.418C50.0361 453.831 47.3088 467.831 46.1738 479.071C46.1738 479.071 84.4823 480.259 97.8451 490.653C97.8451 490.653 107.942 445.514 109.428 442.248C110.914 438.982 112.992 439.574 112.992 439.574C112.992 439.574 121.46 477.286 126.433 489.461C126.433 489.461 135.145 485.015 145.062 480.851C159.911 474.616 178.026 476.396 178.026 476.396C178.026 476.396 174.76 460.657 169.416 448.184C164.072 435.712 153.379 414.33 151.003 398.889L77.3579 391.467H77.3538Z" fill="#F69835"/>
<path d="M165.811 321.832L169.412 324.951C169.412 324.951 155.555 348.904 169.412 360.785C169.412 360.785 159.315 368.506 155.751 379.987C152.187 391.467 151.868 400.18 153.808 404.14C153.808 404.14 112.592 421.761 73.7896 393.847C73.7896 393.847 82.1061 366.526 91.0147 349.105C99.9233 331.683 102.099 326.339 102.099 326.339C102.099 326.339 120.692 327.437 138.983 308.636C138.983 308.636 142.09 310.302 143.576 310.996C143.576 310.996 153.232 329.344 165.811 321.836V321.832Z" fill="#DD1CDD"/>
<path d="M165.811 321.831C165.811 321.831 149.325 340.477 142.919 335.937C136.513 331.397 143.576 310.992 143.576 310.992C146.361 311.506 148.99 309.179 150.901 306.774C152.738 304.463 153.906 302.083 153.906 302.083L167.383 309.632C165.59 311.633 164.77 313.572 164.484 315.299C163.855 319.084 165.807 321.827 165.807 321.827L165.811 321.831Z" fill="#FFA897"/>
<path d="M110.314 321.395C110.257 321.395 110.204 321.378 110.151 321.35C110.008 321.26 109.963 321.068 110.053 320.925C112.972 316.234 110.061 309.293 110.032 309.224C109.967 309.069 110.036 308.885 110.195 308.82C110.351 308.755 110.534 308.824 110.6 308.983C110.726 309.281 113.666 316.291 110.579 321.252C110.522 321.346 110.42 321.399 110.318 321.399L110.314 321.395Z" fill="#43224D"/>
<path d="M149.435 261.113C149.267 261.113 149.129 260.978 149.129 260.811C149.051 255.046 146.418 251.22 146.393 251.183C146.295 251.045 146.328 250.853 146.467 250.755C146.606 250.657 146.797 250.689 146.895 250.828C147.01 250.987 149.659 254.833 149.741 260.802C149.741 260.974 149.606 261.113 149.439 261.113H149.435Z" fill="#43224D"/>
<path d="M128.429 391.773C128.274 391.773 128.143 391.659 128.123 391.5C128.102 391.333 128.225 391.177 128.392 391.157C140.588 389.704 148.598 379.791 148.68 379.688C148.786 379.554 148.978 379.533 149.112 379.639C149.247 379.746 149.268 379.938 149.161 380.072C149.141 380.097 147.091 382.657 143.539 385.359C140.257 387.854 134.978 390.994 128.466 391.769C128.454 391.769 128.441 391.769 128.429 391.769V391.773Z" fill="#43224D"/>
<path d="M112.988 439.88C112.886 439.88 112.784 439.827 112.727 439.738C112.637 439.595 112.682 439.403 112.825 439.313C118.888 435.524 122.182 430.539 123.873 427.028C125.71 423.215 126.118 420.263 126.122 420.23C126.143 420.063 126.298 419.944 126.469 419.965C126.637 419.985 126.755 420.14 126.735 420.312C126.718 420.434 126.318 423.374 124.44 427.273C122.713 430.866 119.349 435.961 113.151 439.835C113.102 439.868 113.045 439.88 112.988 439.88Z" fill="#43224D"/>
<path d="M131.981 487.048C131.85 487.048 131.728 486.963 131.687 486.832L116.32 437.018C116.271 436.855 116.361 436.683 116.524 436.634C116.687 436.585 116.859 436.675 116.908 436.839L132.275 486.652C132.324 486.816 132.234 486.987 132.071 487.036C132.042 487.044 132.01 487.048 131.981 487.048Z" fill="#43224D"/>
<path d="M167.387 309.632C165.594 311.633 164.774 313.572 164.488 315.299C155.445 315.144 152.117 310.151 150.901 306.77C152.738 304.459 153.906 302.079 153.906 302.079L167.383 309.628L167.387 309.632Z" fill="#F98B85"/>
<path d="M154.563 289.908C154.563 289.908 155.898 279.628 164.958 275.949C171.625 273.243 179.888 276.541 183.75 280.257C187.613 283.968 190.507 289.471 188.123 295.334C184.71 303.72 177.598 306.684 177.598 306.684L154.567 289.908H154.563Z" fill="#43224D"/>
<path d="M156.845 290.464C156.845 290.464 153.203 284.748 148.896 287.287C144.14 290.088 147.471 301.156 153.754 299.756L156.845 290.464Z" fill="#F98B85"/>
<path d="M152.668 295.624C152.668 295.624 152.66 295.624 152.656 295.624C152.509 295.62 152.387 295.514 152.362 295.367C152.362 295.359 152.17 294.33 151.472 294.044C151.003 293.852 150.374 294.028 149.606 294.567C149.468 294.665 149.276 294.632 149.178 294.493C149.08 294.355 149.112 294.163 149.251 294.065C150.202 293.395 151.031 293.195 151.709 293.477C152.068 293.624 152.33 293.885 152.517 294.163C152.57 293.371 152.505 292.342 151.925 291.778C151.456 291.321 150.684 291.235 149.635 291.521C149.472 291.566 149.3 291.468 149.255 291.305C149.21 291.141 149.308 290.97 149.472 290.925C150.75 290.578 151.717 290.717 152.354 291.333C153.628 292.574 152.991 295.269 152.962 295.383C152.93 295.522 152.803 295.62 152.664 295.62L152.668 295.624Z" fill="#43224D"/>
<path d="M177.704 303.72C177.704 303.72 184.424 304.59 183.955 309.571C183.44 315.066 172 316.752 170.6 310.465L177.704 303.72Z" fill="#F98B85"/>
<path d="M177.361 312.372C177.361 312.372 177.324 312.372 177.308 312.368C177.141 312.339 177.03 312.18 177.059 312.013C177.222 311.09 177.116 310.445 176.74 310.102C176.185 309.592 175.173 309.857 175.164 309.861C175.022 309.898 174.875 309.832 174.809 309.702C174.744 309.571 174.777 309.412 174.891 309.322C174.981 309.249 177.153 307.526 178.814 308.154C179.643 308.469 180.182 309.285 180.411 310.592C180.439 310.759 180.329 310.918 180.162 310.947C179.994 310.976 179.835 310.865 179.807 310.698C179.619 309.624 179.215 308.963 178.602 308.734C177.88 308.461 176.924 308.812 176.193 309.208C176.524 309.261 176.871 309.387 177.157 309.649C177.7 310.143 177.871 310.976 177.667 312.123C177.643 312.274 177.512 312.376 177.365 312.376L177.361 312.372Z" fill="#43224D"/>
<path d="M153.975 306.701C151.733 301.058 153.73 294.865 155.69 290.807C157.212 287.651 159.393 284.846 162.112 282.633C168.852 277.146 173.131 279.906 178.765 285.009C183.612 289.398 186.041 292.203 180.823 300.658C180.823 300.658 174.332 312.6 164.223 313.213C159.781 313.482 155.624 310.841 153.979 306.701H153.975Z" fill="#FFA897"/>
<path d="M171.927 296.306C174.172 296.571 176.924 297.906 177.406 299.07C177.888 300.234 177.006 301.107 176.238 300.907C175.471 300.707 171.776 298.715 170.857 297.988C169.938 297.261 170.661 296.155 171.927 296.306Z" fill="#43224D"/>
<path d="M172.029 302.255C172.396 301.678 172.394 301.021 172.024 300.786C171.655 300.551 171.059 300.829 170.692 301.405C170.326 301.982 170.328 302.639 170.697 302.874C171.066 303.109 171.663 302.832 172.029 302.255Z" fill="#43224D"/>
<path d="M165.925 292.489C164.733 290.57 162.353 288.643 161.095 288.704C159.838 288.765 159.421 289.933 159.928 290.541C160.434 291.15 163.806 293.652 164.855 294.175C165.905 294.698 166.599 293.575 165.925 292.493V292.489Z" fill="#43224D"/>
<path d="M161.853 295.781C162.219 295.205 162.217 294.547 161.848 294.312C161.479 294.078 160.882 294.355 160.516 294.932C160.149 295.508 160.151 296.166 160.521 296.4C160.89 296.635 161.486 296.358 161.853 295.781Z" fill="#43224D"/>
<path d="M166.386 297.323L165.778 298.65C165.68 298.858 165.586 299.07 165.488 299.279C165.443 299.372 165.382 299.564 165.26 299.573C165.137 299.581 164.97 299.389 164.884 299.315C164.749 299.197 164.61 299.095 164.447 299.017C164.129 298.866 163.774 298.809 163.422 298.846C162.716 298.923 162.112 299.344 161.822 299.997C161.528 300.663 161.565 301.455 161.94 302.079C162.365 302.79 163.12 303.21 163.929 303.312C164.084 303.333 164.219 303.165 164.219 303.022C164.219 302.851 164.084 302.753 163.929 302.733C163.32 302.655 162.737 302.296 162.426 301.761C162.116 301.226 162.128 300.561 162.447 300.046C162.765 299.532 163.365 299.311 163.929 299.438C164.243 299.507 164.435 299.695 164.68 299.887C164.949 300.099 165.296 300.242 165.615 300.038C165.954 299.822 166.084 299.34 166.244 298.997C166.456 298.531 166.672 298.066 166.885 297.601C166.95 297.458 166.925 297.29 166.783 297.205C166.66 297.131 166.452 297.168 166.386 297.307V297.323Z" fill="#43224D"/>
<path d="M163.308 307.775C161.989 307.775 160.871 307.452 159.964 306.807C158.049 305.443 157.829 303.153 157.817 303.055C157.8 302.888 157.927 302.737 158.098 302.72C158.266 302.704 158.417 302.83 158.433 302.998C158.433 303.022 158.646 305.109 160.328 306.305C161.618 307.223 163.439 307.399 165.733 306.827C165.897 306.787 166.064 306.889 166.105 307.052C166.146 307.215 166.044 307.383 165.88 307.423C164.953 307.656 164.092 307.771 163.304 307.771L163.308 307.775Z" fill="#43224D"/>
<path d="M164.28 279.628C164.28 279.628 169.412 285.752 172.531 287.977C175.352 289.99 181.44 294.636 185.596 295.314C189.752 295.996 178.259 272.561 164.28 279.624V279.628Z" fill="#43224D"/>
<path d="M198.314 242.99C198.314 242.99 203.058 244.639 206.981 248.273C210.905 251.91 212.415 252.425 215.171 252.641C217.923 252.858 221.826 251.51 223.872 250.726C225.917 249.942 229.849 249.016 230.257 247.403C230.257 247.403 238.072 246.288 234.622 239.601C234.622 239.601 237.912 237.143 233.923 233.126C233.923 233.126 237.1 230.57 232.486 226.601C232.486 226.601 234.842 221.024 227.583 219.248C219.948 217.382 207.929 218.795 200.494 220.228C200.494 220.228 197.489 228.626 198.322 242.99H198.314Z" fill="#FFA897"/>
<path d="M230.253 247.709C230.102 247.709 229.971 247.599 229.947 247.443C229.947 247.443 229.706 245.839 228.036 244.659C226.064 243.259 222.998 242.965 218.928 243.785C218.772 243.814 218.621 243.724 218.572 243.577C218.536 243.459 214.763 231.672 208.766 228.789C208.61 228.716 208.549 228.532 208.623 228.377C208.696 228.222 208.88 228.161 209.035 228.234C214.837 231.023 218.47 241.303 219.079 243.132C223.202 242.344 226.342 242.691 228.412 244.173C230.294 245.516 230.547 247.292 230.559 247.366C230.584 247.533 230.461 247.688 230.294 247.713C230.282 247.713 230.265 247.713 230.253 247.713V247.709Z" fill="#43224D"/>
<path d="M221.434 243.414C221.394 243.414 221.357 243.406 221.316 243.389C219.863 242.793 218.368 241.291 218.454 239.682C218.507 238.702 219.168 237.359 222.035 236.522C229.049 234.477 234.756 239.319 234.814 239.368C234.944 239.478 234.956 239.674 234.846 239.801C234.736 239.931 234.54 239.944 234.413 239.833C234.36 239.784 228.894 235.163 222.21 237.114C220.218 237.694 219.132 238.596 219.07 239.715C219.001 240.993 220.279 242.295 221.553 242.818C221.712 242.883 221.785 243.063 221.72 243.218C221.671 243.336 221.557 243.41 221.434 243.41V243.414Z" fill="#43224D"/>
<path d="M221.859 237.151C220.557 237.151 218.568 235.787 218.127 234.199C217.874 233.297 217.927 231.615 221.12 230.521C227.661 228.275 234.038 232.827 234.103 232.872C234.242 232.97 234.27 233.166 234.172 233.301C234.075 233.44 233.879 233.468 233.744 233.37C233.683 233.325 227.558 228.961 221.324 231.1C219.903 231.59 218.295 232.493 218.727 234.032C219.148 235.53 221.173 236.71 222.067 236.514C222.235 236.477 222.398 236.583 222.435 236.751C222.471 236.918 222.365 237.082 222.198 237.118C222.096 237.143 221.981 237.151 221.867 237.151H221.859Z" fill="#43224D"/>
<path d="M221.218 231.121C221.218 231.121 221.206 231.121 221.202 231.121C219.107 231.019 217.327 229.602 217.241 227.969C217.205 227.303 217.45 225.07 222.108 224.335C228.971 223.249 232.535 226.242 232.682 226.368C232.813 226.479 232.825 226.674 232.715 226.801C232.605 226.932 232.409 226.944 232.282 226.834C232.229 226.789 228.751 223.906 222.206 224.943C219.405 225.384 217.78 226.507 217.858 227.936C217.931 229.267 219.442 230.418 221.234 230.508C221.406 230.516 221.536 230.659 221.528 230.831C221.52 230.994 221.385 231.125 221.222 231.125L221.218 231.121Z" fill="#43224D"/>
<path d="M221.006 225.152C220.973 225.152 220.944 225.148 220.912 225.136C220.789 225.095 217.87 224.139 217.56 222.155C217.368 220.918 218.229 219.608 220.124 218.256C220.263 218.158 220.454 218.191 220.552 218.33C220.65 218.468 220.618 218.66 220.479 218.758C218.793 219.959 218.013 221.069 218.168 222.057C218.417 223.67 221.071 224.54 221.1 224.548C221.263 224.601 221.349 224.772 221.3 224.936C221.259 225.066 221.136 225.148 221.006 225.148V225.152Z" fill="#43224D"/>
</svg>
